<svg xmlns="http://www.w3.org/2000/svg" viewBox="30 40 540 330">
  <path d="M0 0 C24.94322287 -0.12032643 24.94322287 -0.12032643 35.68554688 -0.14648438 C42.97719991 -0.16432483 50.2687385 -0.18528668 57.56030273 -0.22631836 C63.44774303 -0.25923624 69.33506036 -0.27692047 75.22258568 -0.28463173 C77.45372639 -0.29011764 79.68486141 -0.30082761 81.91594887 -0.31719017 C99.31587978 -0.43956812 116.2324971 0.49620144 132.875 6.0625 C134.23262451 6.50867676 134.23262451 6.50867676 135.61767578 6.96386719 C157.84168471 14.54504426 176.63647095 26.35633204 194 42 C194.77472656 42.6909375 195.54945313 43.381875 196.34765625 44.09375 C223.80948334 70.01053781 240.20827192 109.31944909 241.3515625 146.734375 C242.45558635 192.42523223 229.99139555 232.75503095 198.43457031 266.546875 C193.66221693 271.50338067 188.49917737 275.86540305 183 280 C181.83791016 280.88558594 181.83791016 280.88558594 180.65234375 281.7890625 C168.09657179 290.97007772 154.74984192 297.31325443 140.05786133 302.27319336 C138.53919639 302.80956369 137.03996734 303.40172259 135.55419922 304.0234375 C133.03601169 304.98623143 130.69979284 305.55512713 128.05078125 306.03515625 C127.11943359 306.20466797 126.18808594 306.37417969 125.22851562 306.54882812 C124.26623047 306.71833984 123.30394531 306.88785156 122.3125 307.0625 C121.36955078 307.23587891 120.42660156 307.40925781 119.45507812 307.58789062 C108.12933054 309.61951957 97.07682932 310.1411345 85.5859375 310.09765625 C84.12049407 310.09578705 82.65505 310.09436552 81.18960571 310.09336853 C77.36580628 310.08958288 73.54204591 310.07978719 69.71826172 310.06866455 C65.80306527 310.05836462 61.8878624 310.05385267 57.97265625 310.04882812 C50.31508652 310.03816067 42.65754877 310.0211328 35 310 C34.97667426 283.81012728 34.95902242 257.6202561 34.94818783 231.4303751 C34.94302418 219.27088131 34.93598017 207.11139396 34.92456055 194.9519043 C34.91461581 184.35784032 34.90814708 173.763781 34.90591151 163.16971248 C34.90460404 157.55650597 34.90151594 151.9433128 34.89426994 146.33011055 C34.88751304 141.05333464 34.88538236 135.77657765 34.88689232 130.49979782 C34.88661584 128.55708527 34.88460877 126.61437212 34.88079453 124.67166328 C34.87586242 122.03141574 34.87699991 119.39124084 34.87974548 116.75099182 C34.87683264 115.97182406 34.8739198 115.19265629 34.87091869 114.38987738 C34.88587879 109.11412121 34.88587879 109.11412121 36 108 C53.16 108 70.32 108 88 108 C88 157.17 88 206.34 88 257 C111.0955365 255.35031882 130.89761249 249.90408583 149 235 C149.62648438 234.52304687 150.25296875 234.04609375 150.8984375 233.5546875 C169.62799944 218.72358642 179.97639516 194.346985 183.578125 171.30078125 C186.65736723 144.26751877 181.70702268 118.54538583 165.4375 96.375 C163.97846496 94.56690149 162.5006354 92.77372401 161 91 C160.06607422 89.824375 160.06607422 89.824375 159.11328125 88.625 C144.41359346 70.87443361 121.64220098 59.81888988 99 57 C91.30873656 56.4404463 83.5862156 56.51075403 75.87890625 56.48828125 C73.68073038 56.47140188 71.48256396 56.45324736 69.28440857 56.43388367 C63.54876666 56.38673115 57.81316312 56.35669821 52.07739258 56.33044434 C45.16871148 56.29517393 38.26017764 56.23826173 31.35161591 56.18505096 C20.901097 56.10694544 10.45076541 56.0560311 0 56 C0 37.52 0 19.04 0 0 Z" fill="#118581" transform="translate(318,50)"/>
  <path d="M0 0 C2.30597657 0.00561001 4.61195677 0.00987344 6.91793823 0.01286316 C12.92492923 0.02420143 18.93169523 0.05357109 24.93859863 0.0869751 C32.17927909 0.12337673 39.42003568 0.13688969 46.66078186 0.15433502 C57.60473921 0.18321703 68.54820494 0.24078091 79.4921875 0.29296875 C79.4921875 18.77296875 79.4921875 37.25296875 79.4921875 56.29296875 C72.62921875 56.34195313 65.76625 56.3909375 58.6953125 56.44140625 C54.32941296 56.4768207 49.96353234 56.5127968 45.59765625 56.55078125 C38.67857674 56.61092631 31.75952349 56.66907005 24.84033203 56.71484375 C19.2575866 56.75190691 13.67498793 56.79832221 8.09236908 56.85103226 C5.96992333 56.86946503 3.84744625 56.8846133 1.7249527 56.89631271 C-13.99354207 56.95189458 -13.99354207 56.95189458 -29.5078125 59.29296875 C-31.30798828 59.66615234 -31.30798828 59.66615234 -33.14453125 60.046875 C-47.18514999 63.76826819 -59.62870446 70.69375578 -70.5078125 80.29296875 C-71.11496094 80.75832031 -71.72210938 81.22367187 -72.34765625 81.703125 C-90.18431658 95.57608304 -100.65649232 121.53559766 -103.5078125 143.29296875 C-104.55864884 155.94579903 -103.42078311 167.97110307 -100.5078125 180.29296875 C-100.353125 181.05351562 -100.1984375 181.8140625 -100.0390625 182.59765625 C-96.16536894 200.55073604 -86.36783468 215.57949953 -73.5078125 228.29296875 C-72.70601563 229.10507812 -71.90421875 229.9171875 -71.078125 230.75390625 C-61.54924995 239.90787474 -49.82351277 245.75469383 -37.5078125 250.29296875 C-36.33412109 250.73769531 -36.33412109 250.73769531 -35.13671875 251.19140625 C-26.9177803 253.9911121 -19.50587134 254.23437359 -10.5078125 255.29296875 C-10.5078125 272.45296875 -10.5078125 289.61296875 -10.5078125 307.29296875 C-53.52940857 307.29296875 -87.84431631 293.11565667 -118.6953125 263.41796875 C-140.47604303 241.03809192 -155.24340672 210.16070599 -159.5078125 179.29296875 C-159.600625 178.66173096 -159.6934375 178.03049316 -159.7890625 177.38012695 C-160.77213446 169.90439137 -160.75139173 162.38289873 -160.7578125 154.85546875 C-160.75848724 154.14365448 -160.75916199 153.43184021 -160.75985718 152.69845581 C-160.7432517 141.6564309 -160.23283372 131.0349286 -157.5078125 120.29296875 C-157.24242676 119.23432617 -157.24242676 119.23432617 -156.97167969 118.15429688 C-149.75522032 90.21077027 -136.50746365 66.01515065 -116.5078125 45.29296875 C-115.71890625 44.44089844 -114.93 43.58882812 -114.1171875 42.7109375 C-84.14736968 11.20293367 -42.13329684 -0.30515494 0 0 Z" fill="#0A2648" transform="translate(208.5078125,51.70703125)"/>
  <path d="M0 0 C17.49 0 34.98 0 53 0 C53.02254613 18.6276143 53.04097865 37.2552176 53.05181217 55.88284206 C53.05697536 64.53135605 53.06401848 73.17986097 53.07543945 81.82836914 C53.08538561 89.36364579 53.09185326 96.89891588 53.09408849 104.43419892 C53.09539572 108.42655852 53.0984823 112.41889936 53.10573006 116.41125298 C53.1124892 120.16467098 53.11461718 123.91806239 53.11310768 127.6714859 C53.11338406 129.05302894 53.11538981 130.43457281 53.11920547 131.81611061 C53.12414099 133.69437145 53.12239796 135.57264638 53.12025452 137.45091248 C53.12117631 138.50452186 53.1220981 139.55813124 53.12304783 140.64366817 C53 143 53 143 52 144 C34.84 144 17.68 144 0 144 C-0.09648248 141.15238732 -0.12187318 139.3010419 -0.12025452 137.45091248 C-0.12162918 136.24631378 -0.12300385 135.04171509 -0.12442017 133.8006134 C-0.12088056 132.45358252 -0.11724575 131.10655188 -0.11352539 129.75952148 C-0.11324352 128.35052492 -0.11340125 126.94152821 -0.1139679 125.53253174 C-0.11425589 121.6959237 -0.10835894 117.85934666 -0.10139394 114.02274585 C-0.09516063 110.01753059 -0.09455662 106.0123147 -0.09336853 102.00709534 C-0.09025515 94.41747996 -0.08204167 86.82787892 -0.07201904 79.23826987 C-0.06085812 70.59996076 -0.05534751 61.96165099 -0.05032361 53.32333648 C-0.03985906 35.5488812 -0.02151349 17.77444558 0 0 Z" fill="#055B8A" transform="translate(283,216)"/>
  <path d="M0 0 C17.16 0 34.32 0 52 0 C52 29.04 52 58.08 52 88 C34.84 88 17.68 88 0 88 C0 58.96 0 29.92 0 0 Z" fill="#065785" transform="translate(215,272)"/>
</svg>
